# File created by Blade
# Date/Time:  Mon Nov 15 14:44:42 2010
#---------------------------------------------------------
:version 1.10
:name HOM
:units
  mass 1.0
  length 1.000000
  angle deg
:documentation
     Acclaim Skeleton File
:root
   axis xyz
   order TX TY TZ RX RY RZ
   position 0.000000 0.000000 0.000000
   orientation 0 0 0
:bonedata
   begin
      id 1
      name LeftUpLeg_dum
      direction 1.000000 0.000000 0.000000
      length 4.719518
      axis 0.0 0.0 0.0 xyz
   end
   begin
      id 2
      name RightUpLeg_dum
      direction -1.000000 0.000000 0.000000
      length 4.719518
      axis 0.0 0.0 0.0 xyz
   end
   begin
      id 3
      name Spine_dum
      direction 0.000000 1.000000 0.000000
      length 0.039370
      axis 0.0 0.0 0.0 xyz
   end
   begin
      id 4
      name LeftUpLeg
      direction 0.000000 -1.000000 0.000000
      length 19.141694
      axis 0.0 0.0 0.0 xyz
      dof rx ry rz
   end
   begin
      id 5
      name LeftLeg
      direction 0.000000 -1.000000 0.000000
      length 19.555040
      axis 0.0 0.0 0.0 xyz
      dof rx ry rz
   end
   begin
      id 6
      name LeftFoot
      direction 0.000000 -0.258819 0.965926
      length 6.929396
      axis 15.0 0.0 0.0 xyz
      dof rx ry rz
   end
   begin
      id 7
      name LeftToeBase
      direction 0.000000 0.000000 1.000000
      length 2.952750
      axis 0.0 0.0 0.0 xyz
      dof rx ry rz
   end
   begin
      id 8
      name RightUpLeg
      direction 0.000000 -1.000000 0.000000
      length 19.141694
      axis 0.0 0.0 0.0 xyz
      dof rx ry rz
   end
   begin
      id 9
      name RightLeg
      direction 0.000000 -1.000000 0.000000
      length 19.555040
      axis 0.0 0.0 0.0 xyz
      dof rx ry rz
   end
   begin
      id 10
      name RightFoot
      direction 0.000000 -0.258819 0.965926
      length 6.929396
      axis 15.0 0.0 0.0 xyz
      dof rx ry rz
   end
   begin
      id 11
      name RightToeBase
      direction 0.000000 0.000000 1.000000
      length 2.952750
      axis 0.0 0.0 0.0 xyz
      dof rx ry rz
   end
   begin
      id 12
      name Spine
      direction 0.000000 1.000000 0.000000
      length 11.965764
      axis 0.0 0.0 0.0 xyz
      dof rx ry rz
   end
   begin
      id 13
      name Spine1
      direction 0.000000 1.000000 0.000000
      length 0.000000
      axis 0.0 0.0 0.0 xyz
      dof rx ry rz
   end
   begin
      id 14
      name Spine1_dum1
      direction 0.000000 1.000000 0.000000
      length 9.788721
      axis 0.0 0.0 0.0 xyz
   end
   begin
      id 15
      name Spine1_dum2
      direction 0.000000 1.000000 0.000000
      length 9.788721
      axis 0.0 0.0 0.0 xyz
   end
   begin
      id 16
      name Spine1_dum3
      direction 0.000000 1.000000 0.000000
      length 9.788721
      axis 0.0 0.0 0.0 xyz
   end
   begin
      id 17
      name Neck
      direction 0.000000 1.000000 0.000000
      length 7.029632
      axis 0.0 0.0 0.0 xyz
      dof rx ry rz
   end
   begin
      id 18
      name Head
      direction 0.000000 1.000000 0.000000
      length 4.527550
      axis 0.0 0.0 0.0 xyz
      dof rx ry rz
   end
   begin
      id 19
      name LeftShoulder
      direction 1.000000 -0.000004 0.000000
      length 9.320257
      axis 0.0 0.0 -90.0 xyz
      dof rx ry rz
   end
   begin
      id 20
      name LeftArm
      direction 1.000000 -0.000004 0.000000
      length 12.801352
      axis 0.0 0.0 -90.0 xyz
      dof rx ry rz
   end
   begin
      id 21
      name LeftForeArm
      direction 1.000000 -0.000004 0.000000
      length 11.278127
      axis 0.0 0.0 -90.0 xyz
      dof rx ry rz
   end
   begin
      id 22
      name LeftHand
      direction 0.000000 0.000000 0.000000
      length 0.000000
      axis 0.0 0.0 -90.0 xyz
      dof rx ry rz
   end
   begin
      id 23
      name LeftHand_dum1
      direction 0.000000 0.000000 0.000000
      length 0.000000
      axis 0.0 0.0 -90.0 xyz
   end
   begin
      id 24
      name LeftHand_dum2
      direction 1.000000 -0.000004 0.000000
      length 3.937000
      axis 0.0 0.0 -90.0 xyz
   end
   begin
      id 25
      name LeftHandThumb
      direction 0.000000 0.000000 1.000000
      length 3.937000
      axis 0.0 0.0 -90.0 xyz
      dof rx ry rz
   end
   begin
      id 26
      name RightShoulder
      direction -1.000000 -0.000004 0.000000
      length 9.320257
      axis 0.0 0.0 90.0 xyz
      dof rx ry rz
   end
   begin
      id 27
      name RightArm
      direction -1.000000 -0.000004 0.000000
      length 12.801352
      axis 0.0 0.0 90.0 xyz
      dof rx ry rz
   end
   begin
      id 28
      name RightForeArm
      direction -1.000000 -0.000004 0.000000
      length 11.278127
      axis 0.0 0.0 90.0 xyz
      dof rx ry rz
   end
   begin
      id 29
      name RightHand
      direction 0.000000 0.000000 0.000000
      length 0.000000
      axis 0.0 0.0 90.0 xyz
      dof rx ry rz
   end
   begin
      id 30
      name RightHand_dum1
      direction 0.000000 0.000000 0.000000
      length 0.000000
      axis 0.0 0.0 90.0 xyz
   end
   begin
      id 31
      name RightHand_dum2
      direction -1.000000 -0.000004 0.000000
      length 5.393690
      axis 0.0 0.0 90.0 xyz
   end
   begin
      id 32
      name RightHandThumb
      direction 0.000000 0.000000 1.000000
      length 3.937000
      axis 0.0 0.0 90.0 xyz
      dof rx ry rz
   end
:hierarchy
   begin
      root LeftUpLeg_dum RightUpLeg_dum Spine_dum
      LeftUpLeg_dum LeftUpLeg
      RightUpLeg_dum RightUpLeg
      Spine_dum Spine
      LeftUpLeg LeftLeg
      LeftLeg LeftFoot
      LeftFoot LeftToeBase
      RightUpLeg RightLeg
      RightLeg RightFoot
      RightFoot RightToeBase
      Spine Spine1
      Spine1 Spine1_dum1 Spine1_dum2 Spine1_dum3
      Spine1_dum1 Neck
      Spine1_dum2 LeftShoulder
      Spine1_dum3 RightShoulder
      Neck Head
      LeftShoulder LeftArm
      LeftArm LeftForeArm
      LeftForeArm LeftHand
      LeftHand LeftHand_dum1 LeftHand_dum2
      LeftHand_dum1 LeftHandThumb
      RightShoulder RightArm
      RightArm RightForeArm
      RightForeArm RightHand
      RightHand RightHand_dum1 RightHand_dum2
      RightHand_dum1 RightHandThumb
   end

# File created by Blade
# Date/Time:  Mon Nov 15 14:56:25 2010
# Frame Rate: 200.000 fps
#------------------------------------------------------
:FULLY-SPECIFIED
:DEGREES
864
root  2.207789 41.623881 103.595000 -16.157152 1.211382 0.377618
LeftUpLeg  20.230913 13.735504 0.983338
LeftLeg  -7.030127 0.000000 -0.000000
LeftFoot  11.742646 0.775419 3.978249
LeftToeBase  -13.339213 0.000000 -0.000000
RightUpLeg  19.869643 -4.138027 0.263745
RightLeg  -5.509228 0.000000 -0.000000
RightFoot  7.449956 -12.619404 -8.093685
RightToeBase  -25.076759 0.000000 -0.000000
Spine  14.215945 -1.834600 0.597697
Spine1  -1.662979 0.465097 -1.353500
Neck  10.224832 -2.209551 -3.161582
Head  -12.693828 -7.351175 2.662730
LeftShoulder  -13.995253 2.853840 22.840876
LeftArm  6.685675 -43.826074 -24.639518
LeftForeArm  6.328111 -0.000000 0.000000
LeftHand  -4.767305 11.351045 -4.387047
LeftHandThumb  0.000000 -0.000000 0.000000
RightShoulder  -16.932499 -12.697958 -22.175880
RightArm  10.402689 24.476671 29.757733
RightForeArm  9.552636 -0.000000 0.000000
RightHand  2.199268 19.546001 5.151483
RightHandThumb  0.000000 -0.000000 0.000000
865
root  2.213417 41.620333 103.608875 -16.117875 1.215976 0.385100
LeftUpLeg  20.179613 13.678693 0.943017
LeftLeg  -6.978517 0.000000 -0.000000
LeftFoot  11.690973 0.838891 3.998816
LeftToeBase  -13.395281 0.000000 -0.000000
RightUpLeg  19.842282 -4.260565 0.217077
RightLeg  -5.485687 0.000000 -0.000000
RightFoot  7.411350 -12.519647 -8.193859
RightToeBase  -25.119524 0.000000 -0.000000
Spine  14.268669 -1.843292 0.633523
Spine1  -1.688101 0.473847 -1.434584
Neck  10.129228 -2.262906 -3.156916
Head  -12.689927 -7.453731 2.763812
LeftShoulder  -14.079096 2.850093 22.683350
LeftArm  6.521188 -43.985947 -24.290102
LeftForeArm  6.360750 -0.000000 0.000000
LeftHand  -4.756590 11.384207 -4.348033
LeftHandThumb  0.000000 -0.000000 0.000000
RightShoulder  -16.971137 -12.666412 -22.152967
RightArm  10.197618 24.537810 29.726273
RightForeArm  9.462472 -0.000000 0.000000
RightHand  2.358871 18.398798 5.615967
RightHandThumb  0.000000 -0.000000 0.000000
866
root  2.217878 41.616318 103.623103 -16.077109 1.221786 0.394132
LeftUpLeg  20.127459 13.628709 0.905441
LeftLeg  -6.924196 0.000000 -0.000000
LeftFoot  11.624527 0.899397 4.035585
LeftToeBase  -13.382566 0.000000 -0.000000
RightUpLeg  19.815511 -4.444995 0.154176
RightLeg  -5.458230 0.000000 -0.000000
RightFoot  7.343832 -12.362824 -8.309047
RightToeBase  -25.025299 0.000000 -0.000000
Spine  14.313596 -1.841063 0.669753
Spine1  -1.716283 0.493089 -1.522493
Neck  10.089868 -2.337863 -3.151747
Head  -12.761499 -7.549598 2.874312
LeftShoulder  -14.152081 2.893733 22.570926
LeftArm  6.475131 -44.259282 -24.152898
LeftForeArm  6.349729 -0.000000 0.000000
LeftHand  -4.713435 11.361561 -4.208408
LeftHandThumb  0.000000 -0.000000 0.000000
RightShoulder  -17.029907 -12.653702 -22.124121
RightArm  10.021373 24.674045 29.787550
RightForeArm  9.541504 -0.000000 0.000000
RightHand  1.937414 17.239405 6.062181
RightHandThumb  0.000000 -0.000000 0.000000
867
root  2.221504 41.611832 103.637422 -16.036343 1.227590 0.403168
LeftUpLeg  20.075351 13.578691 0.867920
LeftLeg  -6.869875 0.000000 -0.000000
LeftFoot  11.558118 0.959945 4.072284
LeftToeBase  -13.369852 0.000000 -0.000000
RightUpLeg  19.788936 -4.629455 0.091347
RightLeg  -5.430773 0.000000 -0.000000
RightFoot  7.276032 -12.206134 -8.424356
RightToeBase  -24.931074 0.000000 -0.000000
Spine  14.358524 -1.838862 0.705984
Spine1  -1.744496 0.512287 -1.610412
Neck  10.050500 -2.412817 -3.146526
Head  -12.833273 -7.645327 2.984958
LeftShoulder  -14.225155 2.937231 22.458443
LeftArm  6.427940 -44.532538 -24.014745
LeftForeArm  6.338707 -0.000000 0.000000
LeftHand  -4.670341 11.338813 -4.068811
LeftHandThumb  0.000000 -0.000000 0.000000
RightShoulder  -17.088669 -12.640962 -22.095289
RightArm  9.845096 24.810450 29.848432
RightForeArm  9.620535 -0.000000 0.000000
RightHand  1.509115 16.083194 6.514568
RightHandThumb  0.000000 -0.000000 0.000000
868
root  2.224409 41.606947 103.651418 -15.998406 1.232275 0.409298
LeftUpLeg  20.032263 13.502714 0.828340
LeftLeg  -6.832010 0.000000 -0.000000
LeftFoot  11.501762 1.045891 4.094750
LeftToeBase  -13.428759 0.000000 -0.000000
RightUpLeg  19.780822 -4.707313 0.064746
RightLeg  -5.445644 0.000000 -0.000000
RightFoot  7.253102 -12.149922 -8.503759
RightToeBase  -24.923139 0.000000 -0.000000
Spine  14.382820 -1.831822 0.744668
Spine1  -1.730641 0.537904 -1.705186
Neck  9.958050 -2.496900 -3.116098
Head  -12.848409 -7.725491 3.040544
LeftShoulder  -14.312004 2.994802 22.390151
LeftArm  6.462158 -44.892554 -24.047531
LeftForeArm  6.341169 -0.000000 0.000000
LeftHand  -4.687318 11.350751 -4.134619
LeftHandThumb  0.000000 -0.000000 0.000000
RightShoulder  -17.173201 -12.613317 -22.064023
RightArm  9.703873 24.932244 29.987529
RightForeArm  9.722230 -0.000000 0.000000
RightHand  1.201938 15.134378 6.987616
RightHandThumb  0.000000 -0.000000 0.000000
869
root  2.226355 41.601850 103.665950 -15.960468 1.236955 0.415432
LeftUpLeg  19.989243 13.426708 0.788832
LeftLeg  -6.794144 0.000000 -0.000000
LeftFoot  11.445437 1.131859 4.117133
LeftToeBase  -13.487666 0.000000 -0.000000
RightUpLeg  19.772743 -4.785174 0.038153
RightLeg  -5.460514 0.000000 -0.000000
RightFoot  7.230098 -12.093741 -8.583168
RightToeBase  -24.915205 0.000000 -0.000000
Spine  14.407120 -1.824799 0.783355
Spine1  -1.716829 0.563544 -1.799955
Neck  9.865549 -2.580934 -3.085533
Head  -12.863627 -7.805640 3.096163
LeftShoulder  -14.398927 3.052270 22.321768
LeftArm  6.496884 -45.252557 -24.080829
LeftForeArm  6.343630 -0.000000 0.000000
LeftHand  -4.704309 11.362671 -4.200433
LeftHandThumb  0.000000 -0.000000 0.000000
RightShoulder  -17.257709 -12.585626 -22.032802
RightArm  9.562837 25.054350 30.126432
RightForeArm  9.823925 -0.000000 0.000000
RightHand  0.888017 14.188046 7.463862
RightHandThumb  0.000000 -0.000000 0.000000
